<svg width="71" height="60" viewBox="0 0 71 60" fill="none" xmlns="http://www.w3.org/2000/svg">
<rect width="71" height="60" fill="white" fill-opacity="0.01"/>
<path d="M60.8109 15.583C60.6153 15.4054 60.3245 15.3833 60.1045 15.5294C59.1319 16.1756 57.8208 16.5036 56.7312 16.6703C58.034 15.6059 59.5537 13.933 59.5436 11.7771C59.5427 11.5603 59.4204 11.3621 59.2271 11.2642C59.0339 11.1664 58.802 11.1854 58.627 11.3131C56.6523 12.7564 53.8218 13.5145 52.7854 13.7565C52.0525 12.5469 49.5319 9 45.1753 9C44.9316 9 44.683 9.01155 44.4363 9.03416C39.0222 9.53285 36.3988 12.7037 35.1515 15.2761C34.3629 16.9023 34.0166 18.477 33.8648 19.5169C33.0062 18.7674 31.5087 17.6268 29.2795 16.4853C25.8741 14.7412 20.0252 12.6623 11.5008 12.6623C10.6721 12.6623 9.8207 12.6819 8.97034 12.7207C8.7769 12.7296 8.60077 12.8351 8.50141 13.0016C8.40206 13.1681 8.39283 13.3735 8.47703 13.5483C10.2964 17.3325 14.2101 19.5554 16.7579 20.656C15.36 21.027 13.8664 21.7508 13.3986 22.8911C13.1612 23.47 13.1002 24.3797 14.1579 25.4265C15.7106 26.9631 17.5361 27.8968 19.1445 28.4636C17.8844 28.6882 16.8782 29.0737 16.5519 29.7152C16.4279 29.9594 16.2863 30.4607 16.7332 31.0759C18.8753 34.0262 24.0096 35.1734 26.2864 35.3605C25.9975 36.0478 25.396 37.1638 24.2342 38.2692C21.7518 40.6304 17.8376 41.8786 12.9147 41.8788C12.9142 41.8788 12.9137 41.8788 12.9132 41.8788C11.5755 41.8788 10.1397 41.788 8.64526 41.6088C8.39843 41.5796 8.16018 41.7115 8.05456 41.9372C7.94895 42.1628 7.9997 42.4308 8.18045 42.6019C14.6705 48.7491 22.0382 51.9988 29.4873 52C29.4888 52 29.4898 52 29.4911 52C37.6919 52 45.7213 47.9616 50.9697 41.1973C55.6436 35.1732 57.434 27.9628 55.9226 21.3316C56.9322 20.8988 59.1611 19.6189 60.9325 16.2817C61.0564 16.0483 61.0063 15.7606 60.8109 15.583Z" fill="#234D6B"/>
</svg>
